<svg xmlns="http://www.w3.org/2000/svg" viewBox="0 0 406.41 429.81"><defs><style>.cls-1{fill:#22b5ff;}.cls-1,.cls-2{opacity:0.4;}.cls-2{fill:#ffff03;}.cls-3{fill:#e5966a;}.cls-4{fill:#efb27f;}.cls-5{fill:#dd6043;}.cls-6{fill:#bf4032;}.cls-7{fill:#fff;}.cls-8{fill:#0b1828;}.cls-9{fill:#112035;}.cls-10{fill:#ffd09a;}.cls-11{opacity:0.6;}.cls-12{fill:#ff9166;}.cls-13{fill:#ffdbb1;}</style></defs><title>quemsomos</title><g id="Camada_2" data-name="Camada 2"><g id="OBJECTS"><g id="BG"><path class="cls-1" d="M35.13,354.59c-3,14.35,141.48,79,160,75s201.18-84.48,202.18-97.15-130.4-53.77-150.7-53.24S38.13,340.24,35.13,354.59Z"/><path class="cls-2" d="M287.66,276.65s116.63,27.85,117.63-70.52S344.09-16.24,211.19,1.76,15.88,100.37,3.08,185.06,11.29,336,182.79,288.88C271.62,260.45,287.66,276.65,287.66,276.65Z"/></g><g id="BOX"><path class="cls-3" d="M334.67,188.76S392,245.12,388,244.61s-67.67-28.93-67.67-28.93L325,199.87Z"/><path class="cls-4" d="M74.37,187.76,201,156.42l1.34,81.6S91.71,214.42,74.37,187.76Z"/><path class="cls-3" d="M201,156.42s127,29.67,133.67,32.34c-14.67,8.66-117,63.66-133.67,45.66C200,198.26,201,156.42,201,156.42Z"/><path class="cls-5" d="M183.64,101.68a273,273,0,0,1-24.35,30c-13,13.5-20,25.5-9,22-4.5,9,10.5,23.5,19.5,25s12.9-28.78,19.2-40.89S187.48,102.68,183.64,101.68Z"/><path class="cls-6" d="M183.64,101.68a286.28,286.28,0,0,1-19.27,24.5h0s-.7,12.33,11.25,7.67c9.37-3.66,12.77-3.36,15.13-1.16C193.36,120.17,187,102.55,183.64,101.68Z"/><path class="cls-5" d="M235.37,90.67s13.42,23.51,26.92,37,10.5,19,6,16c1,7-13.5,22-21,17C240.29,155.68,235.89,94.38,235.37,90.67Z"/><path class="cls-7" d="M257.29,225.68s4-23.5-3.5-54-16-63.5-18-78-7-50-12.5-52.5-16,2-16.5,7.5-6.5,22.5-10.5,25.5-15.5,11-12,36.5,14.5,50-8,84.5a153.76,153.76,0,0,0-14,26.5l45,21S256.93,228.37,257.29,225.68Z"/><path class="cls-5" d="M184.21,110.82A121.88,121.88,0,0,0,186.4,123c3.69-2.19,4-9.16,5-15.16,1.22-7.84,6.93-8.67,9.59-17.17,2.13-6.78-2.42-14.08-4.35-16.76a1.86,1.86,0,0,1-.31.26C191.36,77.06,180.71,85.32,184.21,110.82Z"/><path class="cls-8" d="M217.79,49.93c4.76-1,7-4.32,7.1-7.1a4.1,4.1,0,0,0-1.48-1.63c-4.12-2.38-13.44.79-15.35,4.5h0S210.29,51.43,217.79,49.93Z"/><path class="cls-8" d="M217.91,59.68c-2.4.78-6.37,7.5-6.87,17.25s5.62,4.13,6.87,1.13,3.38-3.5,4.88.25,5.12,3.5,4.62-3.38S222.91,58.06,217.91,59.68Z"/><path class="cls-9" d="M195.79,81.18s-4.34.17-6,5.67a8.4,8.4,0,0,1-2,3.83s4.83,0,5.66-2.67S195.79,81.18,195.79,81.18Z"/><path class="cls-8" d="M177.86,210.51c-3.43-6.33,2.43-14,12-18s19-13,15.71-22.33-15.71-23.47-15.71-23.47a1,1,0,0,0,0,.62c.77,14.42-2.83,29.41-14.9,47.85a107.29,107.29,0,0,0-12.75,26.5l7.77,3.63C177.5,223.5,180.65,215.68,177.86,210.51Z"/><path class="cls-6" d="M252.17,165.13c-.39,1.69-2.06,6.47-8.55,9.72-8,4-14,13.33-12,25.33s-2,16.67-6.33,20.67-11,13.29-3.14,17.42c14.66-4.44,34.91-10.88,35.14-12.59,0,0,4.75-18.81-3.34-53.81A65.92,65.92,0,0,0,252.17,165.13Z"/><path class="cls-6" d="M228,200.68c-.41-2.82-5.5-7-5,1S229,207.68,228,200.68Z"/><path class="cls-5" d="M195.79,119.43c-2.1-1.84-3.75-1-4.75,2.5s-1.34,9.28-.29,10.76,4.79,1.49,5.54-3.76S197.18,120.65,195.79,119.43Z"/><path class="cls-8" d="M175.17,227.69,190,234.61c3.06-2.28-.11-3.52,3.49-6.92s-1.94-10.76-5.19-12.51-5-1.75-6.5,3.25-5.46,6.76-6.62,9.26Z"/><path class="cls-7" d="M144.84,218.68a163.67,163.67,0,0,1-7.13-25.5c-3.26-15.86-12.87-37.73-31.67-43.5-20.09-6.17-27.25.29-25.75,8.83s30.76,6.62,36.91,23.44c9.09,24.92,10.09,32.17,10.09,32.17S139.72,218.84,144.84,218.68Z"/><path class="cls-8" d="M106.41,149.51c-4.56-1.4-10.23-2.46-12.09-2.19-.34,3.52.37,8.14,7.3,9.19,11,1.67,16.33,1.67,18,6.67a4.25,4.25,0,0,0,6.6,2.25C123.16,159.88,115,152.13,106.41,149.51Z"/><path class="cls-5" d="M127.29,214.12s4.44,1.69,9.11,3h0c4.44-11.39-13.16-17.7-13.16-17.7h0C126.78,210.46,127.29,214.12,127.29,214.12Z"/><path class="cls-4" d="M74.37,187.76s2.34,140.46,5.34,151.73c9,6.27,121.33,56.93,121.33,56.93l5.34-72.66L201,234.42S94,208.76,74.37,187.76Z"/><path class="cls-3" d="M161.71,345.91S200.38,239.09,201,234.42c0,0-107-25.66-126.67-46.66,0,0,1.3,77.9,3.2,122.32C114.1,325.9,161.71,345.91,161.71,345.91Z"/><path class="cls-10" d="M201,234.42S77.62,184.34,74.37,187.76c-9,9.46-63.33,60-63.33,62s131.67,60,131.67,60S200.38,239.09,201,234.42Z"/><path class="cls-10" d="M288.14,204.27c24.82-8.52,45.53-15.51,46.57-15.51,0,23.33-3.5,154.5-3.5,154.5L201,396.42v-162s48.52-16.91,87.1-30.15"/><g class="cls-11"><path class="cls-12" d="M269,286.54c-9.89,2.74-13.3,12.36-14.9,25-1.86,14.77,8.86,14.59,19.93,8.7,10.44,1.41,19.53,1.16,14.91-15.5C286.4,295.55,278.91,283.8,269,286.54Z"/><path class="cls-12" d="M294.94,273.65c-3.31-.88-7,2.19-8.26,6.87s.39,9.19,3.7,10.08,7-2.18,8.26-6.86S298.24,274.54,294.94,273.65Z"/><path class="cls-12" d="M275.3,281.22c4,.26,7.62-4.18,8-9.92s-2.62-10.59-6.67-10.85-7.62,4.18-8,9.92S271.25,281,275.3,281.22Z"/><path class="cls-12" d="M248.15,292c-3.49-3.37-8.24-4.1-10.62-1.64s-1.47,7.19,2,10.55,8.24,4.1,10.62,1.64S251.64,295.33,248.15,292Z"/><path class="cls-12" d="M259.41,286.06c3.67-1.72,4.66-7.34,2.21-12.54s-7.4-8-11.08-6.29-4.66,7.35-2.21,12.55S255.74,287.79,259.41,286.06Z"/></g><path class="cls-13" d="M325.25,193c-.62,39.63-3.38,142.75-3.38,142.75L246,366.7l80.47-27s-1-112.3-1.14-146.76Z"/></g><g id="HEARTS"><path class="cls-6" d="M140.75,91s1.48-8.18,6.94-5.66c6.23,2.87-4,16.33-4,16.33s-18.06-4.58-11.93-12.33C136.35,83.56,140.75,91,140.75,91Z"/><path class="cls-5" d="M122,117.42s2.13-4.54,5-2.93c4.79,2.7-2.49,10.85-2.49,10.85s-10.65-3.27-8.16-7.41C118.26,114.62,122,117.42,122,117.42Z"/><path class="cls-6" d="M296.66,140s5-.75,5.2,2.5c.41,5.49-10.41,4-10.41,4s-3.19-10.67,1.63-10.91C296.94,135.35,296.66,140,296.66,140Z"/></g><g id="ADOPT_ME" data-name="ADOPT ME"><path class="cls-8" d="M326.54,86.54c-13.74,3.77-29.82,2.53-41.22-6.69-.65-.52-1.58.4-.92.93,11.77,9.52,28.25,10.93,42.49,7A.65.65,0,0,0,326.54,86.54Z"/><path class="cls-8" d="M282.74,29.4c-9.57,11.92-12.6,29.64-5.05,43.4.41.74,1.53.08,1.13-.66-7.25-13.2-4.35-30.36,4.85-41.81C284.19,29.68,283.27,28.75,282.74,29.4Z"/><path class="cls-8" d="M281.14,76.6c-3.48,2.4-6.87,4.83-10.14,7.5-.66.53.27,1.45.92.92,3.19-2.6,6.49-5,9.87-7.29C282.48,77.25,281.83,76.12,281.14,76.6Z"/><path class="cls-8" d="M355.12,21.88a.44.44,0,0,1,.18.61c-.12.22-.23.44-.32.64s-.23.47-.47,1l-.83,1.69c-.3.64-.61,1.26-.92,1.89s-.54,1.11-.71,1.49c-.42,1-.84,1.94-1.25,2.94s-.79,2-1.14,3c-.15.45-.3,1-.45,1.52a16.77,16.77,0,0,0-.36,1.74,15.44,15.44,0,0,0-.17,1.8,7,7,0,0,0,.14,1.68,4,4,0,0,0,.56,1.38,2.45,2.45,0,0,0,1.09.91,1.71,1.71,0,0,0,.4.1,4.37,4.37,0,0,0,.64,0,4.45,4.45,0,0,0,.71-.09,1.59,1.59,0,0,0,.64-.31,1.86,1.86,0,0,1-.32.81,3.61,3.61,0,0,1-.65.71,4.24,4.24,0,0,1-.87.54,3.84,3.84,0,0,1-.92.31,4.52,4.52,0,0,1-2-.14,4,4,0,0,1-1.71-1,4.81,4.81,0,0,1-1.09-1.64,6.55,6.55,0,0,1-.44-1.92,9,9,0,0,1,.05-2,18.09,18.09,0,0,1,.39-1.92,28.68,28.68,0,0,1,1.54-4q.92-2,1.89-3.9l1.34-2.61c.44-.86.87-1.74,1.28-2.63l.17-.36a4.33,4.33,0,0,0-.9.87c-.35.44-.71.94-1.1,1.5s-.76,1.13-1.14,1.72-.71,1.13-1,1.59l-2.32,3.65c-.77,1.21-1.55,2.44-2.33,3.71l-1,1.5a15.62,15.62,0,0,1-1,1.39,3,3,0,0,1-.9.7,4.3,4.3,0,0,1-1.22.42,3.45,3.45,0,0,1-1.28,0,2,2,0,0,1-1.08-.59,5.22,5.22,0,0,0,.76-1.13c.33-.59.7-1.31,1.12-2.18s.85-1.82,1.31-2.88.9-2.15,1.33-3.26.85-2.21,1.23-3.29.7-2.07,1-3a27.8,27.8,0,0,0-1.6,2.54c-.49.87-1,1.72-1.49,2.56l-1.62,2.7c-.52.88-1.06,1.71-1.63,2.51a16.94,16.94,0,0,1-1.91,2.26l-1.14,1.13c-.39.38-.79.74-1.21,1.1a15.13,15.13,0,0,1-1.3,1,6.81,6.81,0,0,1-1.42.73,5.07,5.07,0,0,1-2.32.32,4.53,4.53,0,0,1-2.14-.83A4.73,4.73,0,0,1,324,39.62a5.14,5.14,0,0,1-.7-1.43,6.27,6.27,0,0,1-.1-3.22,9.11,9.11,0,0,1,1.26-2.92,10.58,10.58,0,0,1,2.09-2.37,9.79,9.79,0,0,1,1.17-.85,7,7,0,0,1,1.35-.66,5.53,5.53,0,0,1,1.43-.3A3.77,3.77,0,0,1,332,28a3.21,3.21,0,0,1,1.3.78,3.78,3.78,0,0,1,.78,1.23,4.53,4.53,0,0,1,.29,1.48,4.71,4.71,0,0,1-.17,1.47,5.94,5.94,0,0,1-1.64,2.72,5,5,0,0,1-2.81,1.38,4.75,4.75,0,0,1-.6,0,7.11,7.11,0,0,1-.78,0,4.46,4.46,0,0,1-.76-.13,1,1,0,0,1-.51-.3,8.38,8.38,0,0,0,2.59-1.17,4.79,4.79,0,0,0,1.73-2.2,6.92,6.92,0,0,0,.46-1.52,3.62,3.62,0,0,0,0-1.54,1.22,1.22,0,0,0-.8-1,2.37,2.37,0,0,0-1.37-.07,4,4,0,0,0-1.39.61,5.69,5.69,0,0,0-1.14,1.05,6.49,6.49,0,0,0-.87,1.31,7.71,7.71,0,0,0-.56,1.4,8.3,8.3,0,0,0-.3,1.5,5.3,5.3,0,0,0,0,1.49,3.71,3.71,0,0,0,.51,1.33,3.11,3.11,0,0,0,1.12,1,2.18,2.18,0,0,0,1.07.34,4.52,4.52,0,0,0,1.15-.1,5.21,5.21,0,0,0,1.11-.38,8.27,8.27,0,0,0,1-.55,7.76,7.76,0,0,0,1.74-1.54c.49-.59,1-1.2,1.43-1.83a33.6,33.6,0,0,0,2.32-3.58c.68-1.24,1.39-2.47,2.11-3.7.56-.94,1.15-1.9,1.79-2.87a11.11,11.11,0,0,1,2.22-2.5,4.38,4.38,0,0,1,1.2-.66,2.64,2.64,0,0,1,1.28-.15,3.09,3.09,0,0,1,1,.24.74.74,0,0,1,.42.54,4.14,4.14,0,0,1-.29,1.31c-.24.72-.55,1.59-.94,2.6s-.83,2.11-1.32,3.29-1,2.3-1.44,3.36c-.18.43-.38.87-.58,1.32l-.6,1.31c-.2.42-.38.8-.54,1.16s-.31.63-.42.83c.33-.42.69-.92,1.07-1.49s.7-1,1-1.46q1.37-2.09,2.63-4.23c.85-1.43,1.76-2.84,2.72-4.21.32-.45.64-.88,1-1.31a13.63,13.63,0,0,1,1.05-1.23c.22-.24.48-.52.79-.83a3.17,3.17,0,0,1,1-.7,3,3,0,0,1,.89-.26,4.9,4.9,0,0,1,.92-.06,3.87,3.87,0,0,1,.81.11A1.39,1.39,0,0,1,355.12,21.88Z"/><path class="cls-8" d="M357.49,34.66a4.42,4.42,0,0,1-.63,0,4.5,4.5,0,0,1-.63-.07,5.21,5.21,0,0,0-.29,2.56,1.9,1.9,0,0,0,.95,1.4,2.78,2.78,0,0,0,1.91.13,7.88,7.88,0,0,0,2.61-1.17,9.76,9.76,0,0,0,2.11-2,16.15,16.15,0,0,0,1.57-2.33,1.53,1.53,0,0,1,.57-.09c.18,0,.29.19.32.54a15.05,15.05,0,0,1-1.68,2.51,19.79,19.79,0,0,1-2.3,2.37,11,11,0,0,1-4,2.22,3.92,3.92,0,0,1-3.34-.33,4.78,4.78,0,0,1-1.63-1.88,4.83,4.83,0,0,1-.51-2.41,7.6,7.6,0,0,1,.43-2.36,11.25,11.25,0,0,1,2.63-4.26,8,8,0,0,1,1.92-1.46,9.26,9.26,0,0,1,2.38-.86,5.15,5.15,0,0,1,2.53,0,2.16,2.16,0,0,1,1,.48,2.14,2.14,0,0,1,.57.81,2.34,2.34,0,0,1,.15,1,3.35,3.35,0,0,1-.22,1.06,5,5,0,0,1-1.52,2.12A8.14,8.14,0,0,1,360.16,34,7.89,7.89,0,0,1,357.49,34.66Zm2.39-5.34a12.57,12.57,0,0,0-1.88,2,13.34,13.34,0,0,0-1.43,2.4c.28-.08.59-.18.94-.31a11.85,11.85,0,0,0,1.62-.74,7.67,7.67,0,0,0,2.45-2.21A2.2,2.2,0,0,0,362,29c0-.3-.09-.47-.28-.5a1.16,1.16,0,0,0-.64.08,3.57,3.57,0,0,0-.7.36A5,5,0,0,0,359.88,29.32Z"/><path class="cls-8" d="M304.91,55c-.2.28-.45.64-.73,1.08s-.59.93-.91,1.45-.63,1.06-.93,1.62-.58,1.09-.83,1.59c-.5,1-.89,1.91-1.17,2.62s-.35,1.16-.22,1.36a.29.29,0,0,0,.29.13,2.12,2.12,0,0,0,.46-.1,2.78,2.78,0,0,0,.46-.21l.3-.18a5.27,5.27,0,0,0,1.08-.91,11.22,11.22,0,0,0,.89-1.07c.26-.35.51-.72.76-1.11s.46-.77.66-1.15a1.13,1.13,0,0,1,.58,0,.6.6,0,0,1,.32.45L305.16,62a13.16,13.16,0,0,1-.83,1.37c-.3.44-.61.87-.94,1.28a12.79,12.79,0,0,1-1,1.17,7,7,0,0,1-1.16.93,2.57,2.57,0,0,1-2.8-.07,2.59,2.59,0,0,1-.89-1.17,2.75,2.75,0,0,1-.19-.75,10.28,10.28,0,0,1-.95,1.17,4.93,4.93,0,0,1-1.14.89,3.28,3.28,0,0,1-1.87.42,2.84,2.84,0,0,1-1.7-.75,3.35,3.35,0,0,1-.95-1.52,6.75,6.75,0,0,1-.25-1.77,7.92,7.92,0,0,1,.37-2.2,11.24,11.24,0,0,1,.87-2.09A12.09,12.09,0,0,1,293,57a13.69,13.69,0,0,1,1.52-1.61,6.43,6.43,0,0,1,1.76-1.17,4.57,4.57,0,0,1,2-.39,3.32,3.32,0,0,1,1.81.63A3.38,3.38,0,0,1,301.24,56a4.29,4.29,0,0,1,.76-.71,3.5,3.5,0,0,1,.91-.49,2.7,2.7,0,0,1,1.07-.17A1.4,1.4,0,0,1,304.91,55Zm-8.8,7.63a9.79,9.79,0,0,0,2.26-2.28,7.74,7.74,0,0,0,1.31-3,2.24,2.24,0,0,0,0-1.15,1,1,0,0,0-.87-.69,1.45,1.45,0,0,0-1,.23,5.66,5.66,0,0,0-.86.67A9.62,9.62,0,0,0,295,59.08a15.12,15.12,0,0,0-1.13,3.12c-.24,1.08-.19,1.79.16,2.13s.81.36,1.41,0a6,6,0,0,0,1.1-.75c.34-.3.67-.6,1-.92a4.17,4.17,0,0,1-.79.1A.63.63,0,0,1,296.11,62.59Z"/><path class="cls-8" d="M323.75,48c-.26.48-.61,1.1-1,1.85l-1.42,2.51q-.78,1.38-1.62,2.94c-.56,1-1.1,2.09-1.63,3.15s-1,2.1-1.48,3.13-.83,2-1.13,2.92a1.19,1.19,0,0,0,0,.71.41.41,0,0,0,.37.25,1.63,1.63,0,0,0,.68-.17,4.45,4.45,0,0,0,.92-.57,7.45,7.45,0,0,0,.88-.84q.45-.49.93-1.11a15.69,15.69,0,0,0,.9-1.3c.29-.45.57-.91.83-1.38a.61.61,0,0,1,.62,0,.52.52,0,0,1,.27.49,22.44,22.44,0,0,1-2,3,17.82,17.82,0,0,1-2.52,2.67,6.33,6.33,0,0,1-1.27.88,3.42,3.42,0,0,1-1.19.38,2.2,2.2,0,0,1-1.08-.18,2.17,2.17,0,0,1-.86-.8,2.53,2.53,0,0,1-.4-.93,4,4,0,0,1-.07-1,14.66,14.66,0,0,1-1.06,1.22,6.71,6.71,0,0,1-1.27,1,4.14,4.14,0,0,1-1.43.56,2.75,2.75,0,0,1-1.54-.17,2.63,2.63,0,0,1-1.25-.92,3.76,3.76,0,0,1-.63-1.36,5.71,5.71,0,0,1-.15-1.55,8.31,8.31,0,0,1,.19-1.52,11,11,0,0,1,1.19-3,14.44,14.44,0,0,1,1.91-2.59,9.69,9.69,0,0,1,1.25-1.11,7.17,7.17,0,0,1,1.49-.87,6.23,6.23,0,0,1,1.63-.43,4.12,4.12,0,0,1,1.67.16,2.26,2.26,0,0,1,1.1.64,2.71,2.71,0,0,1,.55.94c.26-.48.52-.95.79-1.4s.54-.92.82-1.38c.41-.69.87-1.44,1.38-2.26a13.56,13.56,0,0,1,1.58-2.09,2.12,2.12,0,0,1,.76-.54,2.78,2.78,0,0,1,.88-.22,2.59,2.59,0,0,1,.84.05A1.37,1.37,0,0,1,323.75,48Zm-11.48,14.6a7.88,7.88,0,0,0,1.27-2c.32-.72.69-1.5,1.1-2.34a3.54,3.54,0,0,0,.29-1.15,1.93,1.93,0,0,0-.17-1,1,1,0,0,0-.67-.53,2,2,0,0,0-1.24.28,5.7,5.7,0,0,0-1.32,1,9.33,9.33,0,0,0-1.09,1.32,12.5,12.5,0,0,0-.86,1.51,16.28,16.28,0,0,0-.65,1.53,4.59,4.59,0,0,0-.25.71c-.1.31-.19.63-.27,1a5.25,5.25,0,0,0-.15,1,1.53,1.53,0,0,0,.12.78.61.61,0,0,0,.52.32,2.07,2.07,0,0,0,1.06-.37,8.42,8.42,0,0,0,1.25-.9A8.11,8.11,0,0,0,312.27,62.59Z"/><path class="cls-8" d="M329.54,54.85a1.61,1.61,0,0,1,.89-.06,2.1,2.1,0,0,1,1.31.84,3.93,3.93,0,0,1,.7,1.42,5.94,5.94,0,0,1,0,2.52,11.38,11.38,0,0,1-.78,2.46,1.77,1.77,0,0,0,1.74-.19,4.65,4.65,0,0,0,1.49-1.76c.54-.24.84-.09.89.45a7.24,7.24,0,0,1-2.21,2.63,6.45,6.45,0,0,1-3.25,1.08c-.3.38-.62.77-1,1.15a8.11,8.11,0,0,1-1.1,1,5.94,5.94,0,0,1-1.27.74,4.34,4.34,0,0,1-1.43.34,3.7,3.7,0,0,1-1.68-.26,3.85,3.85,0,0,1-1.31-.92,5,5,0,0,1-.89-1.38,5.41,5.41,0,0,1-.41-1.64,7.68,7.68,0,0,1,.08-2,9.4,9.4,0,0,1,.54-1.93,9.26,9.26,0,0,1,.94-1.79,9,9,0,0,1,1.25-1.5A7.09,7.09,0,0,1,325.66,55a4.88,4.88,0,0,1,1.79-.53,4.39,4.39,0,0,1,1,0,2.92,2.92,0,0,1,1,.29ZM328.21,61a4.13,4.13,0,0,1,1-.67,1.15,1.15,0,0,1,1,0,1.24,1.24,0,0,1,.34.31,7.27,7.27,0,0,0,.26-1.56,5.57,5.57,0,0,0-.15-1.62,2,2,0,0,0-.41-.76,3.36,3.36,0,0,0-.65-.57,3.27,3.27,0,0,0-1,.08,3.5,3.5,0,0,0-.86.34,4.29,4.29,0,0,0-1.31,1.07,7.76,7.76,0,0,0-1.07,1.59,10.76,10.76,0,0,0-.76,1.82,7.63,7.63,0,0,0-.33,1.8,3.94,3.94,0,0,0,.18,1.5,1.55,1.55,0,0,0,.81.94,2,2,0,0,0,1.61,0,4.23,4.23,0,0,0,1.76-1.3,2.81,2.81,0,0,1-.71-.37,1.59,1.59,0,0,1-.49-.6,1.18,1.18,0,0,1,0-1A2.89,2.89,0,0,1,328.21,61Z"/><path class="cls-8" d="M344.17,49.36a1,1,0,0,1,0,.65c-.07.18-.17.38-.28.6l-.33.67a5.9,5.9,0,0,1,1,.17,2.24,2.24,0,0,1,1,.57,1.89,1.89,0,0,1,.52,1,.92.92,0,0,1,0,.53.65.65,0,0,1-.43.16l-.84.14c-.33.06-.67.11-1,.14l-.92.12-.59.08h0l-.64,1.34-2.37,4.76c-.07.15-.21.42-.42.82s-.42.84-.64,1.33a5.85,5.85,0,0,0-.65,2.18c0,.48.17.74.48.8a2,2,0,0,0,1.29-.43A9.36,9.36,0,0,0,341,63.43a14,14,0,0,0,1.17-1.52,16.76,16.76,0,0,0,1.06-1.83c.56-.29.87-.15.92.45-.3.56-.61,1.11-.95,1.67a15.92,15.92,0,0,1-1.1,1.62c-.4.52-.82,1-1.26,1.49a9.42,9.42,0,0,1-1.45,1.24,4.12,4.12,0,0,1-1.52.67,3.57,3.57,0,0,1-1.72,0,2,2,0,0,1-1-.61,2.51,2.51,0,0,1-.55-1.09,4.14,4.14,0,0,1-.13-1.31,6.94,6.94,0,0,1,.22-1.34,13,13,0,0,1,.44-1.29c.16-.42.33-.83.5-1.22A30.18,30.18,0,0,1,337,57.42l1.61-2.83-1.54.19c-.44,0-.74.07-.89.07a1.39,1.39,0,0,1-.12-.66,2.11,2.11,0,0,1,.14-.74,2.78,2.78,0,0,1,.33-.67,2,2,0,0,1,.43-.47,3.68,3.68,0,0,1,1.41-.67,12.93,12.93,0,0,1,1.52-.28h.27l.28,0,.81-1.54a6.24,6.24,0,0,0,.35-.68,1.67,1.67,0,0,1,.46-.6.72.72,0,0,1,.57-.11,2.61,2.61,0,0,1,.67.21,2.21,2.21,0,0,1,.56.38A1.21,1.21,0,0,1,344.17,49.36Z"/><path class="cls-8" d="M357.82,55c-.2.28-.45.64-.74,1.08s-.59.93-.9,1.45-.63,1.06-.94,1.62-.58,1.09-.82,1.59c-.5,1-.89,1.91-1.17,2.62s-.35,1.16-.22,1.36a.29.29,0,0,0,.29.13,2.26,2.26,0,0,0,.46-.1,2.78,2.78,0,0,0,.46-.21l.29-.18a5.33,5.33,0,0,0,1.09-.91,12.94,12.94,0,0,0,.89-1.07q.39-.53.75-1.11c.25-.39.47-.77.67-1.15a1.09,1.09,0,0,1,.57,0,.55.55,0,0,1,.32.45c-.26.48-.51,1-.75,1.42a13.16,13.16,0,0,1-.83,1.37c-.3.44-.61.87-.94,1.28a12.79,12.79,0,0,1-1,1.17,7,7,0,0,1-1.16.93,2.36,2.36,0,0,1-1.41.38,2.31,2.31,0,0,1-1.39-.45,2.59,2.59,0,0,1-.89-1.17,2.75,2.75,0,0,1-.19-.75,10.28,10.28,0,0,1-1,1.17,5.15,5.15,0,0,1-1.14.89,3.28,3.28,0,0,1-1.87.42,2.84,2.84,0,0,1-1.7-.75,3.35,3.35,0,0,1-.95-1.52,6.36,6.36,0,0,1-.25-1.77,8.3,8.3,0,0,1,.36-2.2,12,12,0,0,1,2.13-4,14.57,14.57,0,0,1,1.52-1.61,6.64,6.64,0,0,1,1.77-1.17,4.54,4.54,0,0,1,2.05-.39A3.27,3.27,0,0,1,354.14,56a4.74,4.74,0,0,1,.77-.71,3.5,3.5,0,0,1,.91-.49,2.7,2.7,0,0,1,1.07-.17A1.4,1.4,0,0,1,357.82,55ZM349,62.59a9.57,9.57,0,0,0,2.25-2.28,7.45,7.45,0,0,0,1.31-3,2.14,2.14,0,0,0,0-1.15,1,1,0,0,0-.87-.69,1.45,1.45,0,0,0-1,.23,5.66,5.66,0,0,0-.86.67,9.62,9.62,0,0,0-1.94,2.67,15.12,15.12,0,0,0-1.13,3.12c-.24,1.08-.19,1.79.16,2.13s.81.36,1.4,0a5.35,5.35,0,0,0,1.1-.75c.35-.3.68-.6,1-.92a4.17,4.17,0,0,1-.79.1A.63.63,0,0,1,349,62.59Z"/><path class="cls-8" d="M382.73,55c-.21.28-.45.64-.74,1.08s-.59.93-.9,1.45-.63,1.06-.94,1.62-.58,1.09-.82,1.59c-.5,1-.89,1.91-1.17,2.62s-.35,1.16-.22,1.36a.28.28,0,0,0,.29.13,2.26,2.26,0,0,0,.46-.1,2.78,2.78,0,0,0,.46-.21l.29-.18a5.33,5.33,0,0,0,1.09-.91c.31-.34.61-.7.89-1.07s.51-.72.75-1.11.47-.77.67-1.15a1.1,1.1,0,0,1,.57,0,.55.55,0,0,1,.32.45c-.26.48-.51,1-.75,1.42a11.73,11.73,0,0,1-.84,1.37c-.29.44-.6.87-.93,1.28a12.79,12.79,0,0,1-1,1.17,7.39,7.39,0,0,1-1.16.93,2.38,2.38,0,0,1-1.41.38,2.29,2.29,0,0,1-1.39-.45,2.52,2.52,0,0,1-.89-1.17,3.16,3.16,0,0,1-.2-.75,9.25,9.25,0,0,1-.94,1.17,5,5,0,0,1-1.15.89,3.23,3.23,0,0,1-1.86.42,2.84,2.84,0,0,1-1.7-.75,3.27,3.27,0,0,1-1-1.52,6.36,6.36,0,0,1-.25-1.77,8.3,8.3,0,0,1,.36-2.2,11.28,11.28,0,0,1,.88-2.09A12,12,0,0,1,370.76,57a14.57,14.57,0,0,1,1.52-1.61,6.64,6.64,0,0,1,1.77-1.17,4.54,4.54,0,0,1,2.05-.39A3.27,3.27,0,0,1,379.05,56a4.36,4.36,0,0,1,.77-.71,3.61,3.61,0,0,1,.9-.49,2.78,2.78,0,0,1,1.08-.17A1.4,1.4,0,0,1,382.73,55Zm-8.8,7.63a9.75,9.75,0,0,0,2.25-2.28,7.45,7.45,0,0,0,1.31-3,2.14,2.14,0,0,0,0-1.15,1,1,0,0,0-.86-.69,1.45,1.45,0,0,0-1,.23,5.2,5.2,0,0,0-.86.67,9.62,9.62,0,0,0-1.94,2.67,15.12,15.12,0,0,0-1.13,3.12q-.36,1.62.15,2.13c.35.35.82.36,1.41,0a5.35,5.35,0,0,0,1.1-.75c.34-.3.67-.6,1-.92a4.17,4.17,0,0,1-.79.1A.63.63,0,0,1,373.93,62.59Z"/><path class="cls-8" d="M390.39,54.37a10.33,10.33,0,0,0-.78,1.09c-.3.46-.58.95-.86,1.45s-.55,1-.8,1.45-.44.84-.57,1.14c-.26.57-.51,1.15-.75,1.73A18.32,18.32,0,0,0,386,63a5,5,0,0,0-.21,1.38.77.77,0,0,0,.32.71A1,1,0,0,0,387,65a6.61,6.61,0,0,0,1.51-1.07,15.74,15.74,0,0,0,1.67-1.78,13.27,13.27,0,0,0,1.34-2c.5-.24.79-.09.89.45A25.46,25.46,0,0,1,391,62.86,16,16,0,0,1,389.16,65a8.6,8.6,0,0,1-2.71,2.1,2.61,2.61,0,0,1-2.1.13A2.13,2.13,0,0,1,383.08,66a4.87,4.87,0,0,1-.3-1.8,12.19,12.19,0,0,1,.62-3.41,17,17,0,0,1,1.39-3.16c.34-.6.7-1.2,1.1-1.82a7,7,0,0,1,1.38-1.56,2.18,2.18,0,0,1,.7-.34,2.82,2.82,0,0,1,.87-.12,3.19,3.19,0,0,1,.88.16A1.35,1.35,0,0,1,390.39,54.37Zm-2.62-2.2A15.8,15.8,0,0,0,389,50.69c.43-.57.87-1.11,1.32-1.61a7.13,7.13,0,0,1,1.39-1.2,1.8,1.8,0,0,1,1.41-.28,1.43,1.43,0,0,1,1,.95,1.78,1.78,0,0,1-.08,1.48,2.34,2.34,0,0,1-.88.93,7.55,7.55,0,0,1-1.16.63,7.45,7.45,0,0,1-2.52.68A7.61,7.61,0,0,1,387.77,52.17Z"/><path class="cls-8" d="M397.47,66.13a2.5,2.5,0,0,1-.6.77,2.84,2.84,0,0,1-.82.48,2.7,2.7,0,0,1-.94.17,1.86,1.86,0,0,1-.93-.25A2.22,2.22,0,0,1,393,65.84a2.5,2.5,0,0,1,.2-1.88,2.57,2.57,0,0,1,1.4-1.27,2.2,2.2,0,0,1,1.89.1,2.24,2.24,0,0,1,1.17,1.46A2.45,2.45,0,0,1,397.47,66.13Zm1.39-6.35a1.21,1.21,0,0,1-.53.48.41.41,0,0,1-.42,0,.69.69,0,0,1-.21-.46,2,2,0,0,1,.1-.78c.41-1.36.82-2.7,1.24-4s.85-2.53,1.3-3.63a18.83,18.83,0,0,1,1.39-2.84,4.24,4.24,0,0,1,1.56-1.63,2.49,2.49,0,0,1,.95-.32,2.16,2.16,0,0,1,.92,0,1.66,1.66,0,0,1,.74.48,2.14,2.14,0,0,1,.46.93,3,3,0,0,1-.37,2,16.11,16.11,0,0,1-1.63,2.52c-.71.95-1.55,2-2.5,3.21S399.9,58.27,398.86,59.78Z"/></g></g></g></svg>